<svg width="1024" height="1024" viewBox="0 0 1024 1024" fill="none" xmlns="http://www.w3.org/2000/svg">
<rect width="1024" height="1024" rx="120" fill="black"/>
<path d="M462.95 945.138L160.359 769.663C129.962 753.083 112 721.304 112 686.762V337.193C112 302.651 129.962 270.872 160.359 252.91L462.95 77.4352C493.347 60.8549 529.271 60.8549 559.668 77.4352L862.259 252.91C892.656 269.491 910.618 302.651 910.618 337.193V686.762C910.618 721.304 892.656 753.083 862.259 771.045L559.668 945.138C530.653 963.1 493.347 963.1 462.95 945.138ZM268.131 707.487L462.95 820.786C493.347 837.366 529.271 837.366 559.668 820.786L754.487 707.487C784.884 690.907 802.846 657.746 802.846 623.204V399.37C802.846 364.827 784.884 333.048 754.487 315.086L559.668 201.788C529.271 185.207 493.347 185.207 462.95 201.788L268.131 315.086C237.734 331.667 219.772 364.827 219.772 399.37V624.586C219.772 659.128 237.734 690.907 268.131 707.487Z" fill="white"/>
<path d="M912 337.194C912 302.651 894.038 270.872 863.641 252.91L559.668 77.4352C529.271 60.8549 493.347 60.8549 462.95 77.4352L160.359 252.91C129.962 270.872 112 302.651 112 337.194V357.919C142.397 395.225 178.321 432.53 219.772 467.073V399.37C219.772 364.828 237.734 333.049 268.131 315.087L462.95 201.788C493.347 185.207 529.271 185.207 559.668 201.788L754.487 315.087C784.884 331.667 802.846 364.828 802.846 399.37V624.586C802.846 635.639 801.465 645.311 797.319 654.983C833.243 654.983 870.549 653.601 910.618 650.838V337.194H912Z" fill="white"/>
<path d="M558.292 360.685V500.235C558.292 505.762 561.055 511.289 566.582 514.052L682.644 581.755C689.553 585.9 697.843 580.374 697.843 573.465V428.387C697.843 421.479 693.698 415.952 688.171 413.189L569.346 353.776C565.2 351.013 558.292 355.158 558.292 360.685Z" fill="url(#paint0_linear_3426_460)"/>
<path d="M483.664 402.132V541.684C483.664 547.21 486.427 552.737 491.954 555.501L608.016 623.204C614.925 627.349 623.215 621.822 623.215 614.914V471.217C623.215 464.309 619.07 458.782 613.543 456.018L494.717 396.606C489.191 393.842 483.664 396.606 483.664 402.132Z" fill="url(#paint1_linear_3426_460)"/>
<path d="M414.601 439.439V578.99C414.601 584.517 417.365 590.044 422.891 592.807L538.954 660.51C545.862 664.655 554.152 659.129 554.152 652.22V508.524C554.152 501.615 550.007 496.089 544.48 493.325L425.655 433.912C420.128 429.767 414.601 433.912 414.601 439.439Z" fill="url(#paint2_linear_3426_460)"/>
<path d="M326.166 473.984V613.535C326.166 619.062 328.929 624.589 334.456 627.352L450.518 695.055C457.426 699.2 465.716 693.673 465.716 686.765V543.069C465.716 536.16 461.571 530.633 456.045 527.87L337.219 468.457C331.692 465.694 326.166 469.839 326.166 473.984Z" fill="url(#paint3_linear_3426_460)"/>
<defs>
<linearGradient id="paint0_linear_3426_460" x1="636.945" y1="368.526" x2="620.005" y2="557.29" gradientUnits="userSpaceOnUse">
<stop stop-color="#C5C5C5"/>
<stop offset="1" stop-color="#292929"/>
</linearGradient>
<linearGradient id="paint1_linear_3426_460" x1="561.629" y1="410.739" x2="544.689" y2="599.502" gradientUnits="userSpaceOnUse">
<stop stop-color="#C5C5C5"/>
<stop offset="1" stop-color="#292929"/>
</linearGradient>
<linearGradient id="paint2_linear_3426_460" x1="492.418" y1="447.586" x2="475.479" y2="636.35" gradientUnits="userSpaceOnUse">
<stop stop-color="#C5C5C5"/>
<stop offset="1" stop-color="#292929"/>
</linearGradient>
<linearGradient id="paint3_linear_3426_460" x1="404.038" y1="482.823" x2="387.098" y2="671.585" gradientUnits="userSpaceOnUse">
<stop stop-color="#C5C5C5"/>
<stop offset="1" stop-color="#292929"/>
</linearGradient>
</defs>
</svg>
